<svg xmlns="http://www.w3.org/2000/svg" viewBox="0 0 72 72"><defs><linearGradient id="metal" x1="0" y1="0" x2="1" y2=".3"><stop stop-color="#526779"/><stop offset=".46" stop-color="#b9cedd"/><stop offset=".5" stop-color="#f4fafc"/><stop offset=".57" stop-color="#eaa46f"/><stop offset="1" stop-color="#536679"/></linearGradient><linearGradient id="gold" x2="0.8" y2="1"><stop stop-color="#fff0aa"/><stop offset=".45" stop-color="#d3a854"/><stop offset="1" stop-color="#775126"/></linearGradient></defs><g transform="translate(36 36) rotate(35) translate(-36 -36)" stroke="#17202b" stroke-width="1.4" stroke-linejoin="round"><path d="M32 8H38V63H32Z" fill="#785039"/><path d="M31 11Q16 15 14 7Q6 21 15 36Q17 25 31 28Z" fill="url(#metal)"/><path d="M39 11Q53 15 56 7Q64 21 55 36Q53 25 39 28Z" fill="url(#metal)"/><path d="M15 10Q10 22 15 32M55 10Q60 22 55 32" stroke="#fff"/><path d="M29 14H41V25H29Z" fill="url(#gold)"/><path d="M31 48H39M31 54H39M31 60H39" stroke="#d6b077" stroke-width="2"/></g></svg>
