<svg xmlns="http://www.w3.org/2000/svg" viewBox="0 0 72 72"><defs><linearGradient id="metal" x1="0" y1="0" x2="1" y2=".3"><stop stop-color="#526779"/><stop offset=".46" stop-color="#b9cedd"/><stop offset=".5" stop-color="#f4fafc"/><stop offset=".57" stop-color="#4ee0a2"/><stop offset="1" stop-color="#536679"/></linearGradient><linearGradient id="gold" x2="0.8" y2="1"><stop stop-color="#fff0aa"/><stop offset=".45" stop-color="#d3a854"/><stop offset="1" stop-color="#775126"/></linearGradient></defs><g transform="translate(36 36) rotate(35) translate(-36 -36)" stroke="#17202b" stroke-width="1.4" stroke-linejoin="round"><path d="M35 3L45 14L41 20L45 26L41 32L43 39L35 46L27 39L29 32L25 26L29 20L25 14Z" fill="url(#metal)"/><path d="M35 8V41" stroke="#63ffbf" stroke-width="2"/><path d="M17 43L23 37L28 44H42L47 37L53 43L48 51L40 48H30L22 51Z" fill="url(#gold)"/><path d="M32 49H38V62H32Z" fill="#184d3d"/><path d="M29 63L35 58L41 63L35 69Z" fill="#43da98"/><path d="M33 21L36 18L38 22L34 25L37 28" fill="none" stroke="#d3ffee"/></g></svg>
